{
  "accessors": [
    {
      "bufferView": 2,
      "componentType": 5126,
      "count": 65532,
      "max": [
        2.768430233001709,
        1.4059045314788818,
        3.561647891998291
      ],
      "min": [
        -2.1494126319885254,
        -1.301351547241211,
        -0.22570528090000153
      ],
      "type": "VEC3"
    },
    {
      "bufferView": 2,
      "byteOffset": 786384,
      "componentType": 5126,
      "count": 65532,
      "max": [
        0.9999716281890869,
        0.9999878406524658,
        0.9999884366989136
      ],
      "min": [
        -0.9999841451644897,
        -0.9999974966049194,
        -0.9999382495880127
      ],
      "type": "VEC3"
    },
    {
      "bufferView": 3,
      "componentType": 5126,
      "count": 65532,
      "max": [
        0.9999812245368958,
        0.9999967217445374,
        0.9999883770942688,
        1.0
      ],
      "min": [
        -0.9999995231628418,
        -0.9999952912330627,
        -0.9999939203262329,
        -1.0
      ],
      "type": "VEC4"
    },
    {
      "bufferView": 1,
      "componentType": 5126,
      "count": 65532,
      "max": [
        0.9973463416099548,
        0.9938759803771973
      ],
      "min": [
        0.002249606652185321,
        0.002249606652185321
      ],
      "type": "VEC2"
    },
    {
      "bufferView": 0,
      "componentType": 5125,
      "count": 264489,
      "type": "SCALAR"
    },
    {
      "bufferView": 2,
      "byteOffset": 1572768,
      "componentType": 5126,
      "count": 19359,
      "max": [
        2.76842999458313,
        1.3835397958755493,
        3.535515069961548
      ],
      "min": [
        -2.1494126319885254,
        -1.2987014055252075,
        -0.22570528090000153
      ],
      "type": "VEC3"
    },
    {
      "bufferView": 2,
      "byteOffset": 1805076,
      "componentType": 5126,
      "count": 19359,
      "max": [
        0.9998726844787598,
        0.9995197057723999,
        0.9999884366989136
      ],
      "min": [
        -0.9996523857116699,
        -0.9998139142990112,
        -0.9998517036437988
      ],
      "type": "VEC3"
    },
    {
      "bufferView": 3,
      "byteOffset": 1048512,
      "componentType": 5126,
      "count": 19359,
      "max": [
        0.9999805688858032,
        0.9999764561653137,
        0.9998775124549866,
        1.0
      ],
      "min": [
        -0.9999995231628418,
        -0.9999937415122986,
        -0.9999525547027588,
        -1.0
      ],
      "type": "VEC4"
    },
    {
      "bufferView": 1,
      "byteOffset": 524256,
      "componentType": 5126,
      "count": 19359,
      "max": [
        0.9977250099182129,
        0.9977504014968872
      ],
      "min": [
        0.002249606652185321,
        0.002249606652185321
      ],
      "type": "VEC2"
    },
    {
      "bufferView": 0,
      "byteOffset": 1057956,
      "componentType": 5125,
      "count": 33549,
      "type": "SCALAR"
    }
  ],
  "asset": {
    "extras": {
      "author": "Loïc Norgeot (https://sketchfab.com/norgeotloic)",
      "license": "CC-BY-4.0 (http://creativecommons.org/licenses/by/4.0/)",
      "source": "https://sketchfab.com/3d-models/la-chasse-410ad8228d474df38a64afbd5068297d",
      "title": "\"La Chasse\""
    },
    "generator": "Sketchfab-12.64.0",
    "version": "2.0"
  },
  "bufferViews": [
    {
      "buffer": 0,
      "byteLength": 1192152,
      "name": "floatBufferViews",
      "target": 34963
    },
    {
      "buffer": 0,
      "byteLength": 679128,
      "byteOffset": 1192152,
      "byteStride": 8,
      "name": "floatBufferViews",
      "target": 34962
    },
    {
      "buffer": 0,
      "byteLength": 2037384,
      "byteOffset": 1871280,
      "byteStride": 12,
      "name": "floatBufferViews",
      "target": 34962
    },
    {
      "buffer": 0,
      "byteLength": 1358256,
      "byteOffset": 3908664,
      "byteStride": 16,
      "name": "floatBufferViews",
      "target": 34962
    }
  ],
  "buffers": [
    {
      "byteLength": 5266920,
      "uri": "scene.bin"
    }
  ],
  "images": [
    {
      "uri": "textures/tmpo002_baked_material_baseColor.jpeg"
    },
    {
      "uri": "textures/tmpo002_baked_material_metallicRoughness.png"
    },
    {
      "uri": "textures/tmpo002_baked_material_normal.jpeg"
    }
  ],
  "materials": [
    {
      "doubleSided": true,
      "name": "tmpo002_baked_material",
      "normalTexture": {
        "index": 2
      },
      "pbrMetallicRoughness": {
        "baseColorTexture": {
          "index": 0
        },
        "metallicRoughnessTexture": {
          "index": 1
        }
      }
    }
  ],
  "meshes": [
    {
      "name": "tmp.o.002_tmpo002_baked_material_0",
      "primitives": [
        {
          "attributes": {
            "NORMAL": 1,
            "POSITION": 0,
            "TANGENT": 2,
            "TEXCOORD_0": 3
          },
          "indices": 4,
          "material": 0,
          "mode": 4
        }
      ]
    },
    {
      "name": "tmp.o.002_tmpo002_baked_material_0",
      "primitives": [
        {
          "attributes": {
            "NORMAL": 6,
            "POSITION": 5,
            "TANGENT": 7,
            "TEXCOORD_0": 8
          },
          "indices": 9,
          "material": 0,
          "mode": 4
        }
      ]
    }
  ],
  "nodes": [
    {
      "children": [
        1
      ],
      "matrix": [
        0.003371173981577158,
        0.0,
        0.0,
        0.0,
        0.0,
        7.485509948728448e-19,
        -0.003371173981577158,
        0.0,
        0.0,
        0.003371173981577158,
        7.485509948728448e-19,
        0.0,
        0.0,
        0.0,
        0.0,
        1.0
      ],
      "name": "Sketchfab_model"
    },
    {
      "children": [
        2
      ],
      "matrix": [
        1.0,
        0.0,
        0.0,
        0.0,
        0.0,
        0.0,
        1.0,
        0.0,
        0.0,
        -1.0,
        0.0,
        0.0,
        0.0,
        0.0,
        0.0,
        1.0
      ],
      "name": "388626cd68bd4f16996159851afb4991.fbx"
    },
    {
      "children": [
        3
      ],
      "name": "RootNode"
    },
    {
      "children": [
        4,
        5
      ],
      "matrix": [
        100.0,
        0.0,
        0.0,
        0.0,
        0.0,
        -4.371139006309477e-06,
        -99.9999999999999,
        0.0,
        0.0,
        99.9999999999999,
        -4.371139006309477e-06,
        0.0,
        0.0,
        0.0,
        0.0,
        1.0
      ],
      "name": "tmp.o.002"
    },
    {
      "mesh": 0,
      "name": "tmp.o.002_tmpo002_baked_material_0"
    },
    {
      "mesh": 1,
      "name": "tmp.o.002_tmpo002_baked_material_0"
    }
  ],
  "samplers": [
    {
      "magFilter": 9729,
      "minFilter": 9987,
      "wrapS": 10497,
      "wrapT": 10497
    }
  ],
  "scene": 0,
  "scenes": [
    {
      "name": "Sketchfab_Scene",
      "nodes": [
        0
      ]
    }
  ],
  "textures": [
    {
      "sampler": 0,
      "source": 0
    },
    {
      "sampler": 0,
      "source": 1
    },
    {
      "sampler": 0,
      "source": 2
    }
  ]
}
